HIERARCHY
ROOT Hips
{
  OFFSET 0 0 0
  CHANNELS 6 Xposition Yposition Zposition Zrotation Yrotation Xrotation
  JOINT LeftThigh
  {
    OFFSET 8.409438 0 -5.917753
    CHANNELS 3 Zrotation Yrotation Xrotation
    JOINT LeftLeg
    {
      OFFSET 0 0 -42.358652
      CHANNELS 3 Zrotation Yrotation Xrotation
      JOINT LeftFoot
      {
        OFFSET 0 0 -39.357303
        CHANNELS 3 Zrotation Yrotation Xrotation
      }
    }
  }
  JOINT RightThigh
  {
    OFFSET -8.409438 0 -5.917753
    CHANNELS 3 Zrotation Yrotation Xrotation
    JOINT RightLeg
    {
      OFFSET 0 0 -42.358652
      CHANNELS 3 Zrotation Yrotation Xrotation
      JOINT RightFoot
      {
        OFFSET 0 0 -39.357303
        CHANNELS 3 Zrotation Yrotation Xrotation
      }
    }
  }
  JOINT SpineLow
  {
    OFFSET 0 0 4.719101
    CHANNELS 3 Zrotation Yrotation Xrotation
    JOINT SpineMid
    {
      OFFSET 0 0 12.899191
      CHANNELS 3 Zrotation Yrotation Xrotation
      JOINT Chest
      {
        OFFSET 0 0 12.899191
        CHANNELS 3 Zrotation Yrotation Xrotation
        JOINT LeftShoulder
        {
          OFFSET 7.550562 1.41573 9.438202
          CHANNELS 3 Zrotation Yrotation Xrotation
          JOINT LeftArm
          {
            OFFSET 9.155056 0 4.247191
            CHANNELS 3 Zrotation Yrotation Xrotation
            JOINT LeftForearm
            {
              OFFSET 0 0 25.771955
              CHANNELS 3 Zrotation Yrotation Xrotation
              JOINT LeftHand
              {
                OFFSET 0 0 25.197169
                CHANNELS 3 Zrotation Yrotation Xrotation
              }
            }
          }
        }
        JOINT RightShoulder
        {
          OFFSET -7.550562 1.41573 9.438202
          CHANNELS 3 Zrotation Yrotation Xrotation
          JOINT RightArm
          {
            OFFSET -9.155056 0 4.247191
            CHANNELS 3 Zrotation Yrotation Xrotation
            JOINT RightForearm
            {
              OFFSET 0 0 -25.771955
              CHANNELS 3 Zrotation Yrotation Xrotation
              JOINT RightHand
              {
                OFFSET 0 0 -25.197169
                CHANNELS 3 Zrotation Yrotation Xrotation
              }
            }
          }
        }
        JOINT Neck
        {
          OFFSET 0 0 15.101124
          CHANNELS 3 Zrotation Yrotation Xrotation
          JOINT Head
          {
            OFFSET 0 0 11.325843
            CHANNELS 3 Zrotation Yrotation Xrotation
            End Site
            {
              OFFSET 0 0 14.157303
            }
          }
        }
      }
    }
  }
}
MOTION
Frames: 8
Frame Time: 0.0
0.0  89.887642  0.0  -4.24979  60.854801  -94.748206  -28.665747  -12.171961  -13.419754  -18.091745  4.780557  25.721068  4.743638  0.631119  3.642585  -42.465997  10.734351  4.655742  -8.651552  6.902225  13.167975  1.00513  2.025955  0.423588  2.930352  -1.471887  -0.031126  8.020816  -4.012684  -0.263577  8.020817  -4.012684  -0.263578  4.978623  18.171112  14.293088  150.649168  7.719861  170.18285  -29.574371  52.45078  90.189491  55.687953  -10.321933  20.6861  -0.868906  12.031764  -5.214736  -122.646573  72.468056  173.393417  -25.742697  4.693546  -117.563141  77.34597  13.233698  23.175099  -35.439042  4.825158  4.998166  -26.604941  3.342295  4.043526  
0.0  89.887642  0.0  -4.40299  60.455267  -94.820944  -28.436281  -12.355974  -13.417538  -17.839732  4.83881  25.762222  4.728909  0.615676  3.651601  -42.286885  10.7127  4.600879  -8.713947  6.861961  13.161602  1.055599  2.011445  0.419562  2.937118  -1.488278  -0.029859  8.03948  -4.057524  -0.262532  8.03948  -4.057524  -0.262533  5.0263  18.236429  14.175731  150.521608  7.823383  170.249973  -29.598418  52.340695  90.122615  55.881004  -10.207758  20.696327  -0.798721  12.031268  -5.19552  -122.581431  72.491378  173.500715  -25.872877  4.779205  -117.523784  77.315538  13.201561  23.220754  -35.309007  4.848837  4.944439  -26.507035  3.364218  4.003299  
0.0  89.887642  0.0  -4.566291  60.171338  -94.861288  -27.394162  -12.804985  -13.215984  -18.147385  5.102313  25.420237  4.546737  0.561353  3.554435  -42.493831  10.784444  4.459054  -8.635824  6.780541  13.168417  1.260882  1.98277  0.434453  2.910089  -1.483776  -0.037909  7.965942  -4.044428  -0.28232  7.965941  -4.044428  -0.28232  5.230895  18.108783  14.028693  150.370808  7.926191  170.311947  -29.577815  52.187819  90.086264  56.10883  -10.007701  20.671724  -0.510118  11.850424  -5.119911  -123.380523  72.464378  173.033159  -25.959621  4.911819  -117.51943  77.326137  13.250445  23.35906  -35.179092  4.837607  4.93211  -26.409524  3.357435  3.992215  
0.0  89.887642  0.0  -4.740507  59.662638  -94.945602  -26.74969  -12.956598  -13.184645  -17.993831  5.065358  25.402025  4.433885  0.531032  3.5407  -42.332044  10.731093  4.382378  -8.556847  6.74612  13.200648  1.295524  1.97599  0.442322  2.931354  -1.499521  -0.02397  8.023497  -4.088951  -0.247461  8.023497  -4.088952  -0.24746  5.207995  18.156156  13.808182  150.168161  8.037877  170.367209  -29.580555  51.962876  90.065509  56.37563  -9.898709  20.679004  -0.517958  11.857411  -5.187665  -123.521459  72.464362  172.95756  -26.107478  5.025245  -117.449687  77.369265  13.203418  23.467986  -35.072598  4.779049  4.834728  -26.328763  3.319731  3.914638  
0.0  89.887642  0.0  -4.867241  59.247528  -94.989913  -25.773162  -13.121283  -13.066223  -18.215002  5.100019  25.1926  4.278311  0.485363  3.483602  -42.305304  10.726096  4.225535  -8.717932  6.750099  13.26847  1.508305  1.945882  0.456714  2.926416  -1.490136  -0.015018  8.00931  -4.064456  -0.221556  8.00931  -4.064456  -0.221556  5.400562  17.951977  13.592222  149.896012  8.165279  170.428432  -29.490384  51.713969  90.057651  56.671635  -9.737894  20.740287  -0.319472  11.642308  -5.163107  -124.921571  72.375084  172.069043  -26.374156  5.248255  -117.482306  77.457594  13.28683  23.759553  -35.023615  4.688292  4.777876  -26.291425  3.255009  3.866242  
0.0  89.887642  0.0  -5.002419  58.70081  -95.063118  -24.875124  -13.201872  -12.996413  -18.224375  5.009962  25.124998  4.136479  0.445025  3.442979  -42.087704  10.661515  4.071989  -8.670299  6.757133  13.419162  1.57051  1.940635  0.47691  2.948968  -1.500678  -0.00513  8.070556  -4.094308  -0.197223  8.070556  -4.094308  -0.197223  5.32317  17.953893  13.468113  149.723766  8.347245  170.53126  -29.401369  51.3274  90.123546  57.017597  -9.614862  20.78486  -0.422779  11.617492  -5.159012  -125.002622  72.336091  172.050144  -26.592118  5.430644  -117.412244  77.461497  13.218591  23.813247  -34.952335  4.606055  4.694306  -26.237167  3.198388  3.798052  
0.0  89.887642  0.0  -5.116773  58.224073  -95.064946  -24.174384  -13.226152  -13.016255  -18.059927  4.890695  25.17374  3.923689  0.346119  3.354512  -42.100395  10.659433  3.835098  -8.394747  6.727722  13.630559  1.688923  1.885875  0.492155  2.935445  -1.48864  -0.003796  8.033313  -4.061689  -0.191271  8.033313  -4.061689  -0.191271  5.49136  17.773244  13.354582  149.809368  8.758066  170.831675  -29.100326  50.881097  89.984662  57.393194  -9.414966  20.770237  -0.164315  11.35363  -5.051045  -126.104625  72.183475  171.404282  -26.73367  5.661975  -117.334302  77.51622  13.230864  23.999314  -34.9138  4.509597  4.63497  -26.207644  3.129424  3.747578  
0.0  89.887642  0.0  -5.253587  57.621817  -95.086763  -23.268978  -13.346883  -12.955282  -17.94079  4.783089  25.121969  3.728219  0.26632  3.28742  -41.919646  10.53711  3.588118  -8.304801  6.738037  13.850402  1.734782  1.88568  0.514295  2.942017  -1.498727  0.004852  8.050895  -4.090232  -0.169283  8.050895  -4.090231  -0.169284  5.44606  17.825003  13.241333  149.687461  9.045208  171.030541  -28.909904  50.236799  90.190691  57.960313  -9.198163  20.653689  -0.216728  11.317779  -5.047037  -126.264822  72.147423  171.339128  -26.97766  5.848795  -117.257558  77.540587  13.130064  24.211671  -34.798209  4.399876  4.529134  -26.119971  3.053655  3.660743  
